<?xml version="1.0" encoding="utf-8"?>
<!-- Generator: Adobe Illustrator 19.0.0, SVG Export Plug-In . SVG Version: 6.00 Build 0)  -->
<svg version="1.1" id="Layer_1" xmlns="http://www.w3.org/2000/svg" xmlns:xlink="http://www.w3.org/1999/xlink" x="0px" y="0px"
	 viewBox="0 0 224.2 94.2" style="enable-background:new 0 0 224.2 94.2;" xml:space="preserve">
<g id="XMLID_266_" style="opacity:0.9;">
	<g id="XMLID_156_">
		<path id="XMLID_171_" style="fill:#FFFFFF;" d="M10,17.8c0.8-0.8,1.8-1.2,2.9-1.2c1.1,0,2.1,0.4,2.9,1.2c0.8,0.8,1.2,1.8,1.2,2.9
			c0,1.2-0.4,2.1-1.2,2.9c-0.8,0.8-1.8,1.2-2.9,1.2c-1.1,0-2.1-0.4-2.9-1.2c-0.8-0.8-1.2-1.8-1.2-2.9C8.8,19.6,9.2,18.6,10,17.8z
			 M15.7,33.4v52.8H10V33.4H15.7z"/>
		<path id="XMLID_167_" style="fill:#FFFFFF;" d="M45.5,67.3V13h8.9c5.4,0,9.8,1.2,13.1,3.5c3.3,2.3,5,6,5,11.2
			c0,4.7-1.8,8.2-5.3,10.6c3.2,0.8,5.7,2.4,7.5,5c1.8,2.6,2.8,5.5,2.8,8.9c0,5.1-1.8,8.9-5.4,11.4c-3.6,2.5-8.3,3.7-14,3.7H45.5z
			 M51.5,18.6v18.3h2.3c2,0,3.7-0.1,5-0.3c1.3-0.2,2.6-0.6,3.9-1.2c1.3-0.6,2.3-1.5,2.9-2.8c0.6-1.3,0.9-3,0.9-5
			c0-3.7-1-6.2-3.1-7.3c-2-1.2-5.2-1.7-9.5-1.7H51.5z M51.5,42.1v19.6h6c9.3,0,13.9-3.3,13.9-9.9c0-6.4-4.9-9.6-14.7-9.6H51.5z"/>
		<path id="XMLID_164_" style="fill:#FFFFFF;" d="M112.6,63c-3.5,3.5-7.7,5.2-12.6,5.2c-4.9,0-9.1-1.7-12.6-5.2
			c-3.5-3.5-5.2-7.7-5.2-12.6c0-5,1.7-9.2,5.2-12.7c3.5-3.5,7.7-5.2,12.6-5.2c4.9,0,9.1,1.7,12.6,5.2c3.5,3.5,5.2,7.7,5.2,12.7
			C117.8,55.4,116,59.6,112.6,63z M108.6,41.5c-2.3-2.4-5.1-3.6-8.6-3.6c-3.5,0-6.4,1.2-8.6,3.6c-2.3,2.4-3.4,5.4-3.4,8.9
			c0,3.5,1.1,6.5,3.4,8.9c2.3,2.4,5.1,3.6,8.6,3.6c3.5,0,6.4-1.2,8.6-3.6c2.3-2.4,3.4-5.4,3.4-8.9C112,46.9,110.9,43.9,108.6,41.5z"
			/>
		<path id="XMLID_161_" style="fill:#FFFFFF;" d="M151.8,63c-3.5,3.5-7.7,5.2-12.6,5.2c-4.9,0-9.1-1.7-12.6-5.2
			c-3.5-3.5-5.2-7.7-5.2-12.6c0-5,1.7-9.2,5.2-12.7c3.5-3.5,7.7-5.2,12.6-5.2c4.9,0,9.1,1.7,12.6,5.2c3.5,3.5,5.2,7.7,5.2,12.7
			C157,55.4,155.3,59.6,151.8,63z M147.8,41.5c-2.3-2.4-5.1-3.6-8.6-3.6c-3.5,0-6.4,1.2-8.6,3.6c-2.3,2.4-3.4,5.4-3.4,8.9
			c0,3.5,1.1,6.5,3.4,8.9c2.3,2.4,5.1,3.6,8.6,3.6c3.5,0,6.4-1.2,8.6-3.6c2.3-2.4,3.4-5.4,3.4-8.9C151.2,46.9,150.1,43.9,147.8,41.5
			z"/>
		<path id="XMLID_159_" style="fill:#FFFFFF;" d="M168.7,7.9V46L181,33.4h7.7l-14.5,14.4l17.2,19.4h-7.6l-13.6-15.4l-1.5,1.5v13.9
			H163V7.9H168.7z"/>
		<path id="XMLID_157_" style="fill:#FFFFFF;" d="M213.4,38.8l-4.8,2.5c-0.4-1-1.1-1.8-1.9-2.4c-0.8-0.7-1.7-1-2.7-1
			c-1.1,0-2,0.4-2.9,1.1c-0.9,0.7-1.3,1.6-1.3,2.7c0,0.4,0.1,0.8,0.2,1.2c0.1,0.4,0.4,0.7,0.7,1c0.4,0.3,0.7,0.6,0.9,0.9
			c0.3,0.2,0.7,0.5,1.3,0.8c0.6,0.3,1.1,0.5,1.4,0.6c0.3,0.1,0.8,0.4,1.7,0.7c0.8,0.3,1.4,0.6,1.7,0.6c2.4,1,4.3,2.2,5.7,3.7
			c1.4,1.4,2.1,3.5,2.1,6c0,3.2-1.1,5.8-3.3,7.9c-2.2,2.1-4.9,3.1-8.1,3.1c-2.8,0-5.3-0.8-7.4-2.3c-2.1-1.5-3.6-3.6-4.5-6.3l5.1-2.2
			c0.8,1.8,1.7,3.1,2.7,4c1,0.9,2.4,1.4,4.2,1.4c1.6,0,2.9-0.5,3.9-1.4c1-1,1.5-2.2,1.5-3.7c0-1.4-0.5-2.5-1.6-3.5
			c-1.1-0.9-2.3-1.7-3.8-2.3c-1.5-0.6-3-1.2-4.5-1.9c-1.5-0.7-2.8-1.7-3.8-3c-1.1-1.3-1.6-3-1.6-4.9c0-2.8,1-5.1,3-6.9
			c2-1.8,4.3-2.7,7.1-2.7c1.9,0,3.7,0.6,5.4,1.8C211.4,35.4,212.6,36.9,213.4,38.8z"/>
	</g>
</g>
</svg>
